<svg xmlns="http://www.w3.org/2000/svg" xmlns:xlink="http://www.w3.org/1999/xlink" aria-hidden="true" role="img" class="iconify iconify--logos" width="31.88" height="32" preserveAspectRatio="xMidYMid meet" viewBox="0 0 256 257"><defs><linearGradient id="IconifyId1813088fe1fbc01fb466" x1="-.828%" x2="57.636%" y1="7.652%" y2="78.411%"><stop offset="0%" stop-color="#41D1FF"/><stop offset="100%" stop-color="#BD34FE"/></linearGradient><linearGradient id="IconifyId1813088fe1fbc01fb467" x1="43.376%" x2="50.316%" y1="2.242%" y2="89.03%"><stop offset="0%" stop-color="#FFEA83"/><stop offset="8.333%" stop-color="#FFDD35"/><stop offset="100%" stop-color="#FFA800"/></linearGradient></defs><path fill="url(#IconifyId1813088fe1fbc01fb466)" d="M255.153 37.938L134.897 252.97a12.75 12.75 0 0 1-22.762 0L.847 37.938A12.75 12.75 0 0 1 12.197 20.47l111.018 189.505l111.018-189.505a12.75 12.75 0 0 1 10.92-17.468Z"/><path fill="url(#IconifyId1813088fe1fbc01fb467)" d="M185.867 4.02L128 107.18l-57.867-103.16C66.454-1.353 59.84 1.17 57.03 7.523L12.196 103.177a12.75 12.75 0 0 0 10.92 17.469l104.881-19.281l104.882 19.281a12.75 12.75 0 0 0 10.92-17.469l-44.834-95.654c-2.81-6.353-9.424-8.876-13.102-5.297Z"/></svg> 